<svg width="120" height="120" viewBox="0 0 120 120" fill="none" xmlns="http://www.w3.org/2000/svg">
<path fill-rule="evenodd" clip-rule="evenodd" d="M41.8609 45.0387L52.7846 71.5734C58.8599 86.3308 62.2553 103.989 53.4352 113.79L31.9268 94.1458C22.6756 76.757 26.7713 56.5111 41.8609 45.0387Z" fill="url(#paint0_linear_167_2)"/>
<path fill-rule="evenodd" clip-rule="evenodd" d="M33.0827 56.5089L47.4094 75.7021C55.3773 86.3764 62.9037 105.067 53.7429 115.152L34.7753 99.3481C23.664 87.2783 22.9661 69.6166 33.0827 56.5089Z" fill="url(#paint1_linear_167_2)"/>
<path fill-rule="evenodd" clip-rule="evenodd" d="M74.1173 6.56015L62.5802 16.2398C52.0165 27.263 51.9833 45.7858 55.8426 58.3039L62.3822 88.7388C63.9131 104.113 60.1726 115.825 60.1726 115.825L66.5669 108.214L66.5725 108.241L83.5428 89.9793C83.7306 89.6892 83.9162 89.4029 84.0993 89.1203C91.0935 78.3285 94.6801 72.7946 92.1511 60.4897L83.5952 35.3977L74.1173 6.56015Z" fill="url(#paint2_linear_167_2)"/>
<mask id="mask0_167_2" style="mask-type:alpha" maskUnits="userSpaceOnUse" x="53" y="6" width="40" height="110">
<path fill-rule="evenodd" clip-rule="evenodd" d="M74.1173 6.56015L62.5802 16.2398C52.0165 27.263 51.9833 45.7858 55.8426 58.3039L62.3822 88.7389C63.9131 104.113 60.1726 115.825 60.1726 115.825L66.5669 108.214L66.5725 108.241L83.5428 89.9793C83.7306 89.6892 83.9162 89.4029 84.0993 89.1203C91.0935 78.3285 94.6801 72.7946 92.1511 60.4897L83.5952 35.3977L74.1173 6.56015Z" fill="url(#paint3_linear_167_2)"/>
</mask>
<g mask="url(#mask0_167_2)">
<path fill-rule="evenodd" clip-rule="evenodd" d="M101.93 5.35077L81.0158 18.8787C70.1171 27.4773 66.486 44.7929 67.2489 57.1233L66.7474 86.6358C65.0259 101.263 59.646 111.613 59.646 111.613L66.4263 105.53L66.4258 105.557L84.0419 91.226C84.254 90.9852 84.4634 90.7475 84.6702 90.5128C92.5659 81.553 96.6146 76.9586 96.9127 65.0428L101.93 5.35077Z" fill="url(#paint4_linear_167_2)" fill-opacity="0.4"/>
</g>
<defs>
<linearGradient id="paint0_linear_167_2" x1="44.3447" y1="78.5537" x2="67.7899" y2="105.211" gradientUnits="userSpaceOnUse">
<stop stop-color="white"/>
<stop offset="1" stop-color="#D1D1D1"/>
</linearGradient>
<linearGradient id="paint1_linear_167_2" x1="33.5766" y1="63.3027" x2="79.346" y2="74.2391" gradientUnits="userSpaceOnUse">
<stop stop-color="white"/>
<stop offset="1" stop-color="#D1D1D1"/>
</linearGradient>
<linearGradient id="paint2_linear_167_2" x1="60.7713" y1="70.1797" x2="3.11668" y2="-22.6497" gradientUnits="userSpaceOnUse">
<stop stop-color="white"/>
<stop offset="1" stop-color="#D1D1D1"/>
</linearGradient>
<linearGradient id="paint3_linear_167_2" x1="61.1168" y1="117.942" x2="5.28038" y2="24.6771" gradientUnits="userSpaceOnUse">
<stop stop-color="#38E0E4"/>
<stop offset="1" stop-color="#1CA4C0"/>
</linearGradient>
<linearGradient id="paint4_linear_167_2" x1="78.6109" y1="88.1417" x2="67.8161" y2="12.351" gradientUnits="userSpaceOnUse">
<stop stop-color="white"/>
<stop offset="0.45" stop-color="#D1D1D1"/>
<stop offset="1" stop-color="#D1D1D1" stop-opacity="0"/>
</linearGradient>
</defs>
</svg>
