<svg width="60" height="60" viewBox="0 0 60 60" fill="none" xmlns="http://www.w3.org/2000/svg">
<g id="documents">
<g id="file 1">
<path id="Vector" d="M38.9062 20.625H38.4375V38.4375C38.4375 39.9937 37.1812 41.25 35.625 41.25H23.4375V41.7188C23.4375 43.0125 24.4875 44.0625 25.7812 44.0625H38.9062C40.2 44.0625 41.25 43.0125 41.25 41.7188V22.9688C41.25 21.675 40.2 20.625 38.9062 20.625Z" fill="white"/>
<path id="Vector_2" d="M23.7656 20.9531C24 20.7187 24.1125 20.3906 24.0562 20.0531L23.4563 16.4625L19.275 20.6437L22.8656 21.2437C23.1937 21.3 23.5219 21.1969 23.7656 20.9531Z" fill="white"/>
<path id="Vector_3" d="M36.5625 37.0312V18.2812C36.5625 16.9875 35.5125 15.9375 34.2188 15.9375H25.2656L25.9031 19.7531C26.0531 20.6719 25.7531 21.6188 25.0969 22.2844C24.5531 22.8281 23.8031 23.1375 23.0437 23.1375C22.8844 23.1375 22.725 23.1281 22.5656 23.1L18.75 22.4625V37.0406C18.75 38.3344 19.8 39.3844 21.0938 39.3844H34.2188C35.5125 39.3844 36.5625 38.3344 36.5625 37.0406V37.0312ZM22.9688 26.25H23.4375C23.9531 26.25 24.375 26.6719 24.375 27.1875C24.375 27.7031 23.9531 28.125 23.4375 28.125H22.9688C22.4531 28.125 22.0312 27.7031 22.0312 27.1875C22.0312 26.6719 22.4531 26.25 22.9688 26.25ZM32.3438 35.625H22.9688C22.4531 35.625 22.0312 35.2031 22.0312 34.6875C22.0312 34.1719 22.4531 33.75 22.9688 33.75H32.3438C32.8594 33.75 33.2812 34.1719 33.2812 34.6875C33.2812 35.2031 32.8594 35.625 32.3438 35.625ZM32.3438 31.875H22.9688C22.4531 31.875 22.0312 31.4531 22.0312 30.9375C22.0312 30.4219 22.4531 30 22.9688 30H32.3438C32.8594 30 33.2812 30.4219 33.2812 30.9375C33.2812 31.4531 32.8594 31.875 32.3438 31.875ZM32.3438 28.125H26.7188C26.2031 28.125 25.7812 27.7031 25.7812 27.1875C25.7812 26.6719 26.2031 26.25 26.7188 26.25H32.3438C32.8594 26.25 33.2812 26.6719 33.2812 27.1875C33.2812 27.7031 32.8594 28.125 32.3438 28.125Z" fill="white"/>
</g>
</g>
</svg>
