<?xml version="1.0" encoding="UTF-8"?>
<svg width="20px" height="20px" viewBox="0 0 20 20" version="1.1" xmlns="http://www.w3.org/2000/svg" xmlns:xlink="http://www.w3.org/1999/xlink">
    <title>react-sad-active</title>
    <g id="react-sad-active" stroke="none" stroke-width="1" fill="none" fill-rule="evenodd">
        <g id="sad" transform="translate(2.000000, 2.000000)" fill-rule="nonzero">
            <circle id="Background" fill="#FFCE54" cx="8" cy="8" r="8"></circle>
            <path d="M6.44297143,11.5401143 C6.44297143,12.4635429 5.74811429,13.2114286 4.88868571,13.2114286 C4.02925714,13.2114286 3.3344,12.4635429 3.3344,11.5401143 C3.3344,10.8086857 4.30262857,9.48388571 4.70582857,8.95817143 C4.74716623,8.90183286 4.81286556,8.86855131 4.88274286,8.86855131 C4.95262015,8.86855131 5.01831949,8.90183286 5.05965714,8.95817143 C5.47474286,9.48388571 6.44297143,10.8114286 6.44297143,11.5401143 L6.44297143,11.5401143 Z" id="Watter_Drop" fill="#61ADEB"></path>
            <g id="Face" transform="translate(4.297143, 5.455543)" fill="#FFFFFF">
                <path d="M7.2128,7.18171429 C7.14172976,7.21344772 7.06480421,7.22995401 6.98697143,7.2301735 C6.81240093,7.23065386 6.64831482,7.14690867 6.54628571,7.00525714 C6.272,6.62948571 5.75817143,6.07817143 4.95177143,5.87977143 C4.59211955,5.79289349 4.21805725,5.78385365 3.85462857,5.85325714 C3.69359811,5.88498839 3.5268195,5.84295071 3.4000687,5.73868224 C3.27331789,5.63441377 3.19991243,5.47886986 3.19999977,5.31474286 C3.19976008,5.05107412 3.38713698,4.82453236 3.64617143,4.77531429 C4.16735194,4.67464194 4.7041545,4.68805421 5.21965714,4.81462857 C6.35154286,5.08891429 7.06285714,5.8368 7.44137143,6.36342857 C7.53615426,6.49807813 7.56543855,6.66818295 7.52113876,6.82677619 C7.47683897,6.98536943 7.36364122,7.1156748 7.2128,7.18171429 L7.2128,7.18171429 Z" id="Path"></path>
                <circle id="Oval" cx="6.35428571" cy="1.05142857" r="1.05142857"></circle>
                <circle id="Oval" cx="1.05142857" cy="1.05142857" r="1.05142857"></circle>
            </g>
        </g>
    </g>
</svg>