<?xml version="1.0" encoding="UTF-8"?>
<svg width="24px" height="24px" viewBox="0 0 24 24" version="1.1" xmlns="http://www.w3.org/2000/svg" xmlns:xlink="http://www.w3.org/1999/xlink">
    <title>nutrition-dairy</title>
    <g id="nutrition-dairy" stroke="none" stroke-width="1" fill="none" fill-rule="evenodd">
        <circle id="Oval" fill="#45559D" opacity="0.2" cx="12" cy="12" r="12"></circle>
        <g id="cow-silhouette" transform="translate(6.000000, 8.000000)" fill="#45559D" fill-rule="nonzero">
            <polygon id="Path" points="13.9208611 2.20894397 12.4124828 0.721439987 13.0689917 0.325638402 13.1073104 0.0171652195 12.8027917 0 12.0130504 0.536962563 11.027566 0.537769356 10.4242971 0.189568567 10.2082175 0.231271426 10.211396 0.457646452 10.6002628 0.86477096 10.5489946 1.07862678 5.97259168 1.54386822 1.23223074 1.41873182 0.72140342 1.62115344 0.345132911 2.07312452 0.151538276 3.13030173 0.117339892 3.89024522 0 4.59986152 0.0322559623 5.30664012 0.164222874 5.33215148 0.356051672 5.13251191 0.512004541 4.46935577 0.385600017 3.54938903 0.429569367 3.54312943 0.726700932 4.94366667 0.524306541 6.15914226 0.70910142 8.58497448 0.726700932 8.85360878 0.906786912 8.99883154 1.70303241 9 1.95960857 8.92663747 1.24724035 7.83003867 1.60064327 6.43745808 1.78573245 6.4377641 2.43152861 8.28929871 2.76441838 8.76463897 2.92864125 8.86020222 3.80758679 8.86081427 3.92036494 8.7274152 3.15949505 8.28559859 2.64360567 6.78373925 2.77292383 6.5399208 3.07597095 6.56651716 3.26623992 7.00691493 3.5418577 6.57764534 3.80891117 7.00875108 4.03511494 6.54064414 4.70092391 6.05684646 7.06358486 5.84296282 7.46013307 6.30124914 7.79434722 8.54163022 7.97016576 8.86354068 8.77521101 8.86323465 8.86200191 8.74260517 8.37268838 8.09881207 8.313886 6.87290381 8.57811413 7.01153312 8.85643953 7.8258656 9.21040162 8.88326538 9.36912097 8.99958269 10.089406 9 10.1492091 8.84623636 9.93863295 8.66200932 9.25943304 7.40727907 9.41600395 6.09231754 10.1770799 5.56014009 11.2857314 3.61357082 12.5617549 3.05671663 13.7351833 2.93043959 13.8357771 2.827337 14 2.38983255"></polygon>
        </g>
    </g>
</svg>